<mxfile host="app.diagrams.net" modified="2023-04-24T10:19:05.061Z" agent="Mozilla/5.0 (Windows NT 10.0; Win64; x64) AppleWebKit/537.36 (KHTML, like Gecko) Chrome/112.0.0.0 Safari/537.36" etag="V9vlsxKGn5-nAbGJNaGf" version="21.2.0" type="device">
  <diagram name="Page-1" id="t69dvyjRmtG-1PYwfSEW">
    <mxGraphModel dx="794" dy="1607" grid="1" gridSize="10" guides="1" tooltips="1" connect="1" arrows="1" fold="1" page="1" pageScale="1" pageWidth="827" pageHeight="1169" math="0" shadow="0">
      <root>
        <mxCell id="0" />
        <mxCell id="1" parent="0" />
        <mxCell id="MvXbWBTSfq9HSxft_9OI-1" value="Customer&lt;br&gt;- id&lt;br&gt;- name&lt;br&gt;-email" style="whiteSpace=wrap;html=1;aspect=fixed;" vertex="1" parent="1">
          <mxGeometry x="80" y="60" width="100" height="100" as="geometry" />
        </mxCell>
        <mxCell id="MvXbWBTSfq9HSxft_9OI-2" value="Book&lt;br&gt;- id&lt;br&gt;- name&lt;br&gt;- ISBN&lt;br&gt;- author" style="whiteSpace=wrap;html=1;aspect=fixed;" vertex="1" parent="1">
          <mxGeometry x="300" y="60" width="100" height="100" as="geometry" />
        </mxCell>
        <mxCell id="MvXbWBTSfq9HSxft_9OI-3" value="Location&lt;br&gt;- id&lt;br&gt;- name&lt;br&gt;- address" style="whiteSpace=wrap;html=1;aspect=fixed;" vertex="1" parent="1">
          <mxGeometry x="300" y="-200" width="100" height="100" as="geometry" />
        </mxCell>
        <mxCell id="MvXbWBTSfq9HSxft_9OI-4" value="Borrow Detail&lt;br&gt;- id&lt;br&gt;- Customer&lt;br&gt;- Book&lt;br&gt;- isReturned&lt;br&gt;- dateReturned" style="whiteSpace=wrap;html=1;aspect=fixed;" vertex="1" parent="1">
          <mxGeometry x="190" y="220" width="100" height="100" as="geometry" />
        </mxCell>
        <mxCell id="MvXbWBTSfq9HSxft_9OI-5" value="Stock Location&lt;br&gt;- id&lt;br&gt;- Book&lt;br&gt;- Location&lt;br&gt;- stock" style="whiteSpace=wrap;html=1;aspect=fixed;" vertex="1" parent="1">
          <mxGeometry x="460" y="-80" width="100" height="100" as="geometry" />
        </mxCell>
        <mxCell id="MvXbWBTSfq9HSxft_9OI-6" value="Genre&lt;br&gt;- id&lt;br&gt;- name" style="whiteSpace=wrap;html=1;aspect=fixed;" vertex="1" parent="1">
          <mxGeometry x="530" y="60" width="100" height="100" as="geometry" />
        </mxCell>
        <mxCell id="MvXbWBTSfq9HSxft_9OI-7" value="Book Detail&lt;br&gt;- id&lt;br&gt;- Book&lt;br&gt;- Genre" style="whiteSpace=wrap;html=1;aspect=fixed;" vertex="1" parent="1">
          <mxGeometry x="414" y="220" width="100" height="100" as="geometry" />
        </mxCell>
        <mxCell id="MvXbWBTSfq9HSxft_9OI-8" value="" style="endArrow=classic;startArrow=classic;html=1;rounded=0;exitX=0.5;exitY=0;exitDx=0;exitDy=0;" edge="1" parent="1" source="MvXbWBTSfq9HSxft_9OI-4">
          <mxGeometry width="50" height="50" relative="1" as="geometry">
            <mxPoint x="300" y="210" as="sourcePoint" />
            <mxPoint x="350" y="160" as="targetPoint" />
          </mxGeometry>
        </mxCell>
        <mxCell id="MvXbWBTSfq9HSxft_9OI-10" value="" style="endArrow=classic;startArrow=classic;html=1;rounded=0;exitX=0.5;exitY=0;exitDx=0;exitDy=0;" edge="1" parent="1" source="MvXbWBTSfq9HSxft_9OI-7">
          <mxGeometry width="50" height="50" relative="1" as="geometry">
            <mxPoint x="300" y="210" as="sourcePoint" />
            <mxPoint x="350" y="160" as="targetPoint" />
          </mxGeometry>
        </mxCell>
        <mxCell id="MvXbWBTSfq9HSxft_9OI-11" value="" style="endArrow=classic;startArrow=classic;html=1;rounded=0;entryX=0;entryY=0.5;entryDx=0;entryDy=0;" edge="1" parent="1" target="MvXbWBTSfq9HSxft_9OI-5">
          <mxGeometry width="50" height="50" relative="1" as="geometry">
            <mxPoint x="350" y="60" as="sourcePoint" />
            <mxPoint x="400" y="10" as="targetPoint" />
          </mxGeometry>
        </mxCell>
        <mxCell id="MvXbWBTSfq9HSxft_9OI-12" value="" style="endArrow=classic;startArrow=classic;html=1;rounded=0;entryX=0.5;entryY=1;entryDx=0;entryDy=0;exitX=0.5;exitY=0;exitDx=0;exitDy=0;" edge="1" parent="1" source="MvXbWBTSfq9HSxft_9OI-4" target="MvXbWBTSfq9HSxft_9OI-1">
          <mxGeometry width="50" height="50" relative="1" as="geometry">
            <mxPoint x="130" y="260" as="sourcePoint" />
            <mxPoint x="180" y="210" as="targetPoint" />
          </mxGeometry>
        </mxCell>
        <mxCell id="MvXbWBTSfq9HSxft_9OI-13" value="" style="endArrow=classic;startArrow=classic;html=1;rounded=0;exitX=0.5;exitY=0;exitDx=0;exitDy=0;" edge="1" parent="1" source="MvXbWBTSfq9HSxft_9OI-7">
          <mxGeometry width="50" height="50" relative="1" as="geometry">
            <mxPoint x="530" y="210" as="sourcePoint" />
            <mxPoint x="580" y="160" as="targetPoint" />
          </mxGeometry>
        </mxCell>
        <mxCell id="MvXbWBTSfq9HSxft_9OI-14" value="" style="endArrow=classic;startArrow=classic;html=1;rounded=0;" edge="1" parent="1">
          <mxGeometry width="50" height="50" relative="1" as="geometry">
            <mxPoint x="460" y="-30" as="sourcePoint" />
            <mxPoint x="350" y="-100" as="targetPoint" />
          </mxGeometry>
        </mxCell>
        <mxCell id="MvXbWBTSfq9HSxft_9OI-15" value="1" style="text;html=1;align=center;verticalAlign=middle;resizable=0;points=[];autosize=1;strokeColor=none;fillColor=none;" vertex="1" parent="1">
          <mxGeometry x="115" y="160" width="30" height="30" as="geometry" />
        </mxCell>
        <mxCell id="MvXbWBTSfq9HSxft_9OI-16" value="n" style="text;html=1;align=center;verticalAlign=middle;resizable=0;points=[];autosize=1;strokeColor=none;fillColor=none;" vertex="1" parent="1">
          <mxGeometry x="220" y="190" width="30" height="30" as="geometry" />
        </mxCell>
        <mxCell id="MvXbWBTSfq9HSxft_9OI-17" value="n" style="text;html=1;align=center;verticalAlign=middle;resizable=0;points=[];autosize=1;strokeColor=none;fillColor=none;" vertex="1" parent="1">
          <mxGeometry x="255" y="198" width="30" height="30" as="geometry" />
        </mxCell>
        <mxCell id="MvXbWBTSfq9HSxft_9OI-18" value="1" style="text;html=1;align=center;verticalAlign=middle;resizable=0;points=[];autosize=1;strokeColor=none;fillColor=none;" vertex="1" parent="1">
          <mxGeometry x="310" y="150" width="30" height="30" as="geometry" />
        </mxCell>
        <mxCell id="MvXbWBTSfq9HSxft_9OI-20" value="1" style="text;html=1;align=center;verticalAlign=middle;resizable=0;points=[];autosize=1;strokeColor=none;fillColor=none;" vertex="1" parent="1">
          <mxGeometry x="360" y="150" width="30" height="30" as="geometry" />
        </mxCell>
        <mxCell id="MvXbWBTSfq9HSxft_9OI-22" value="n" style="text;html=1;align=center;verticalAlign=middle;resizable=0;points=[];autosize=1;strokeColor=none;fillColor=none;" vertex="1" parent="1">
          <mxGeometry x="420" y="198" width="30" height="30" as="geometry" />
        </mxCell>
        <mxCell id="MvXbWBTSfq9HSxft_9OI-23" value="n" style="text;html=1;align=center;verticalAlign=middle;resizable=0;points=[];autosize=1;strokeColor=none;fillColor=none;" vertex="1" parent="1">
          <mxGeometry x="460" y="188" width="30" height="30" as="geometry" />
        </mxCell>
        <mxCell id="MvXbWBTSfq9HSxft_9OI-24" value="1" style="text;html=1;align=center;verticalAlign=middle;resizable=0;points=[];autosize=1;strokeColor=none;fillColor=none;" vertex="1" parent="1">
          <mxGeometry x="565" y="158" width="30" height="30" as="geometry" />
        </mxCell>
        <mxCell id="MvXbWBTSfq9HSxft_9OI-29" value="1" style="text;html=1;align=center;verticalAlign=middle;resizable=0;points=[];autosize=1;strokeColor=none;fillColor=none;" vertex="1" parent="1">
          <mxGeometry x="345" y="28" width="30" height="30" as="geometry" />
        </mxCell>
        <mxCell id="MvXbWBTSfq9HSxft_9OI-30" value="n" style="text;html=1;align=center;verticalAlign=middle;resizable=0;points=[];autosize=1;strokeColor=none;fillColor=none;" vertex="1" parent="1">
          <mxGeometry x="440" y="-30" width="30" height="30" as="geometry" />
        </mxCell>
        <mxCell id="MvXbWBTSfq9HSxft_9OI-33" value="n" style="text;html=1;align=center;verticalAlign=middle;resizable=0;points=[];autosize=1;strokeColor=none;fillColor=none;" vertex="1" parent="1">
          <mxGeometry x="435" y="-62" width="30" height="30" as="geometry" />
        </mxCell>
        <mxCell id="MvXbWBTSfq9HSxft_9OI-34" value="1" style="text;html=1;align=center;verticalAlign=middle;resizable=0;points=[];autosize=1;strokeColor=none;fillColor=none;" vertex="1" parent="1">
          <mxGeometry x="335" y="-102" width="30" height="30" as="geometry" />
        </mxCell>
      </root>
    </mxGraphModel>
  </diagram>
</mxfile>
